<svg width="50" height="50" viewBox="0 0 50 50" fill="none" xmlns="http://www.w3.org/2000/svg">
<path d="M7.02813 6.25C4.87188 6.25 3.125 8 3.125 10.1562V39.8281C3.125 41.9844 4.875 43.7344 7.02813 43.7344H8.59063C10.7469 43.7344 12.4937 41.9844 12.4937 39.8281V10.1531C12.4937 7.99688 10.7437 6.25 8.5875 6.25H7.03125H7.02813ZM19.5187 6.25C17.3625 6.25 15.6125 8 15.6125 10.1562V39.8281C15.6125 41.9844 17.3625 43.7344 19.5187 43.7344H21.0812C22.1162 43.7327 23.1081 43.3204 23.8393 42.5881C24.5706 41.8557 24.9813 40.863 24.9812 39.8281V10.1531C24.9804 9.11821 24.5689 8.12591 23.8371 7.39411C23.1053 6.66231 22.113 6.25083 21.0781 6.25H19.5156H19.5187ZM37.4125 14.9281C37.0379 13.9966 36.3186 13.2452 35.4043 12.8302C34.49 12.4153 33.4509 12.3686 32.5031 12.7L30.6844 13.3375C30.1867 13.5122 29.7296 13.7859 29.3405 14.1421C28.9515 14.4983 28.6386 14.9295 28.4208 15.4099C28.203 15.8903 28.0846 16.4098 28.073 16.9371C28.0614 17.4644 28.1567 17.9886 28.3531 18.4781L37.5313 41.3031C38.3094 43.2406 40.4688 44.2188 42.4406 43.5313L44.2594 42.8937C44.7574 42.7191 45.2149 42.4453 45.6042 42.0889C45.9935 41.7325 46.3066 41.3009 46.5244 40.8202C46.7423 40.3394 46.8605 39.8195 46.8719 39.2919C46.8833 38.7642 46.7876 38.2397 46.5906 37.75L37.4125 14.9281V14.9281Z" fill="#F2F0E4"/>
</svg>
